<svg height="512" viewBox="0 0 58 58" width="512" xmlns="http://www.w3.org/2000/svg"><g id="045---Cloning" fill="none" transform="translate(-1)"><path id="Shape" d="m16.84 54c-.21 1.14-.33 2.19-.4 2.9-.0566977.6211507-.5762724 1.0974275-1.2 1.1h-2c-.352069-.0047999-.6848965-.1614754-.9129346-.4297556-.2280382-.2682801-.3290476-.622001-.2770654-.9702444.1358776-.8597398.1961082-1.7297381.18-2.6z" fill="#a59078"/><path id="Shape" d="m36.77 50.31c-.4444528 1.1771796-.6418814 2.4332339-.58 3.69h-4.59c-.88-3.65-4.19-4.22-4.73-4.76-2.8247176.5217058-5.7228917.5013439-8.54-.06-.7296606 1.5251739-1.2316701 3.1491243-1.49 4.82h-4.61c.0496857-1.6427389-.3112097-3.2719235-1.05-4.74-.4254015-.7290418-.7388979-1.5178392-.93-2.34-2.93-1.69-4.56-6.09-4.82-9.5.89-.45 4.24-.23 4.61-2.68.41-2.68-.76-5.06-2.52-5.07-1.1 0-2.52 1-2.95-.22s.43-2.9 2.43-3.35 4.9.86 6.47 1.95c2.24 1.57 2.93 3.15 4.35 4.28 4.19 3.4 16.7-1.89 19 7.39.3758627 1.7143369.1972701 3.5037644-.51 5.11-.2832314.6365842-.2832314 1.3634158 0 2 .53 1.17.98 2.48.46 3.48z" fill="#f9eab0"/><path id="Shape" d="m35.12 58h-2.12c-.3355262-.0043961-.6541604-.1479261-.8797847-.3963024-.2256244-.2483764-.3379759-.5792929-.3102153-.9136976.0690186-.9021308-.0018177-1.8095094-.21-2.69h4.59c-.0073594.8781874.0326989 1.7561317.12 2.63.0426057.3434882-.0626937.688907-.2896689.9502146s-.5542605.4139065-.9003311.4197854z" fill="#a59078"/><path id="Shape" d="m10 34.77c-.3 2.06-2.61 2.23-4.24 2.58h-.09c-3.07.79-4.27-.26-4.67-2.17-.41-2.25 3.91-5.48 6.49-5.48 1.76.01 2.93 2.39 2.51 5.07z" fill="#cbb292"/><ellipse id="Oval" cx="7.01" cy="33" fill="#5f5346" rx="1" ry="1"/><g fill="#e64c3c"><path id="Shape" d="m8 21c-.55228475 0-1-.4477153-1-1 0-6.61 3.66-9.25 6.55-10.3l-1.92-.77c-.5136248-.20434536-.7643453-.78637518-.56-1.29999999.2043454-.51362482.7863752-.76434536 1.3-.56000001l5 2c.4469654.17664783.7050524.64627326.6145632 1.1182841-.0904891.4720109-.5039582.8128925-.9845632.8117159-.32 0-8 .15-8 9 0 .5522847-.44771525 1-1 1z"/><path id="Shape" d="m14 16c-.3593049-.0000627-.6909565-.1928829-.8687761-.505101-.1778196-.3122182-.1744694-.6958342.0087761-1.004899l3-5c.1572029-.34783714.4987108-.5758412.8802382-.58768157.3815275-.01184037.7365164.19454852.9149856.53196837.1784693.33741985.1492845.7470071-.0752238 1.0557132l-3 5c-.1750051.3113964-.502821.5057988-.86.51z"/><path id="Shape" d="m48 51c-.27 0 .09.12-5.37-2.07-.4469654-.1766478-.7050524-.6462733-.6145632-1.1182841.0904891-.4720109.5039582-.8128925.9845632-.8117159.32 0 8-.15 8-9 0-.5522847.4477153-1 1-1s1 .4477153 1 1c0 6.61-3.66 9.25-6.55 10.3l1.92.77c.4469654.1766478.7050524.6462733.6145632 1.1182841-.0904891.4720109-.5039582.8128925-.9845632.8117159z"/><path id="Shape" d="m43 49c-.3593049-.0000627-.6909565-.1928829-.8687761-.505101-.1778196-.3122182-.1744694-.6958342.0087761-1.004899l3-5c.3016091-.4147221.8680449-.5340875 1.311363-.2763444.4433182.2577431.6198266.8090528.408637 1.2763444l-3 5c-.1750051.3113964-.502821.5057988-.86.51z"/></g><path id="Shape" d="m20.57 49.54c-.78-.08-1.52-.2-2.24-.34.1203137-.1956318.2539635-.3827416.4-.56 1.67-2.04 1.27-3.24 1.27-3.29-.1895668-.5134966.0689327-1.0839782.58-1.28.4942411-.1903239 1.0511614.0377064 1.27.52.15.22.82 2.14-1.28 4.95z" fill="#f3d55b"/><path id="Shape" d="m26.87 49.26c-.85.14-1.63.23-2.35.29-.7962548-1.4400422-1.0883956-3.1048923-.83-4.73.0643078-.3572656.3143296-.6530848.6558846-.7760254s.7227528-.054325 1 .18c.2772471.234325.4084232.5987598.3441154.9560254 0 0-.47 2.67 1.18 4.08z" fill="#f3d55b"/><path id="Shape" d="m38.84 28c-.21 1.14-.33 2.19-.4 2.9-.0566977.6211507-.5762724 1.0974275-1.2 1.1h-2c-.352069-.0047999-.6848965-.1614754-.9129346-.4297556-.2280382-.2682801-.3290476-.622001-.2770654-.9702444.1358776-.8597398.1961082-1.7297381.18-2.6z" fill="#a59078"/><path id="Shape" d="m58.77 24.31c-.4444528 1.1771796-.6418814 2.4332339-.58 3.69h-4.59c-.88-3.65-4.19-4.22-4.73-4.76-2.8247176.5217058-5.7228917.5013439-8.54-.06-.7296606 1.5251739-1.2316701 3.1491243-1.49 4.82h-4.61c.0651845-1.6385038-.2784788-3.2674679-1-4.74-.4254015-.7290418-.7388979-1.5178392-.93-2.34-2.93-1.69-4.56-6.09-4.82-9.5.89-.45 4.24-.23 4.61-2.68.41-2.68-.76-5.06-2.52-5.07-1.1 0-2.52 1-2.95-.22s.38-2.9 2.38-3.35 4.9.86 6.47 1.95c2.24 1.57 2.93 3.15 4.35 4.28 4.19 3.4 16.7-1.89 19 7.39.3758627 1.7143369.1972701 3.5037644-.51 5.11-.2832314.6365842-.2832314 1.3634158 0 2 .53 1.17.98 2.48.46 3.48z" fill="#f9eab0"/><path id="Shape" d="m57.12 32h-2.12c-.3355262-.0043961-.6541604-.1479261-.8797847-.3963024-.2256244-.2483764-.3379759-.5792929-.3102153-.9136976.0690186-.9021308-.0018177-1.8095094-.21-2.69h4.59c-.0073594.8781874.0326989 1.7561317.12 2.63.0426057.3434882-.0626937.688907-.2896689.9502146s-.5542605.4139065-.9003311.4197854z" fill="#a59078"/><path id="Shape" d="m32 8.77c-.31 2.06-2.62 2.18-4.25 2.58h-.09c-3.07.77-4.27-.28-4.64-2.19-.44-2.25 3.88-5.48 6.46-5.48 1.77.03 2.94 2.41 2.52 5.09z" fill="#cbb292"/><ellipse id="Oval" cx="29.01" cy="7" fill="#5f5346" rx="1" ry="1"/><path id="Shape" d="m42.57 23.54c-.78-.08-1.52-.2-2.24-.34.1203137-.1956318.2539635-.3827416.4-.56 1.67-2.04 1.27-3.24 1.27-3.29-.1895668-.5134966.0689327-1.0839782.58-1.28.4942411-.1903239 1.0511614.0377064 1.27.52.15.22.82 2.14-1.28 4.95z" fill="#f3d55b"/><path id="Shape" d="m48.87 23.26c-.85.14-1.63.23-2.35.29-.7962548-1.4400422-1.0883956-3.1048923-.83-4.73.0643078-.3572656.3143296-.6530848.6558846-.7760254s.7227528-.054325 1 .18c.2772471.234325.4084232.5987598.3441154.9560254 0 0-.47 2.67 1.18 4.08z" fill="#f3d55b"/></g></svg>